Formula One 2011 Season

Race 10: German Grand Prix,  Nurgburgring Circuit.

Record Source: BBC One Red Button Stream
Original Format: MPEG TS Stream
Date: Saturday 23rd July 2011
Time: 10:00 to 11:00

German Grand Prix Practice Session 3

BBC F1 coverage of the 3rd Practice Session for the 10th Race meeting of the 
2011 Formula One Season, The German Grand Prix, from the Nurgburgring Curcuit

Complete name                    : F1 2011 Race 10 German Practice 2.mkv
Format                           : MPEG-TS
File size                        : 1.29 GiB
Duration                         : 1h 10mn
Overall bit rate                 : 2 630 Kbps

Video
ID                               : 901 (0x385)
Menu ID                          : 1 (0x1)
Format                           : MPEG Video
Format version                   : Version 2
Format profile                   : Main@Main
Format settings, BVOP            : Yes
Format settings, Matrix          : Default
Format settings, GOP             : M=1, N=32
Codec ID                         : 2
Duration                         : 1h 10mn
Bit rate mode                    : Variable
Bit rate                         : 2 306 Kbps
Nominal bit rate                 : 15.0 Mbps
Width                            : 544 pixels
Height                           : 576 pixels
Display aspect ratio             : 16:9
ActiveFormatDescription          : Full frame 16:9 image
Frame rate                       : 25.000 fps
Color space                      : YUV
Chroma subsampling               : 4:2:0
Bit depth                        : 8 bits
Scan type                        : Interlaced
Scan order                       : Top Field First
Compression mode                 : Lossy
Bits/(Pixel*Frame)               : 0.294
Stream size                      : 1.13 GiB (88%)

Audio
ID                               : 951 (0x3B7)
Menu ID                          : 1 (0x1)
Format                           : MPEG Audio
Format version                   : Version 1
Format profile                   : Layer 2
Mode                             : Joint stereo
Mode extension                   : Intensity Stereo + MS Stereo
Codec ID                         : 3
Duration                         : 1h 10mn
Bit rate mode                    : Constant
Bit rate                         : 192 Kbps
Channel(s)                       : 2 channels
Sampling rate                    : 48.0 KHz
Compression mode                 : Lossy
Stream size                      : 96.2 MiB (7%)
Language                         : English








Enjoy, TheBlackKnight



